# xmcd
#
# Track frame offsets:
# 150
# 15759
# 31163
# 47036
# 60743
# 73419
# 86612
# 101857
# 116730
# 129566
# 146459
# 158909
# 171061
# 186531
# 203598
# 217940
# 231918
# 245215
# 260657
# 270146
# 285470
# 300510
# 316994
# 331451
#
# Disc length: 4574 seconds
#
#
# Revision: 0
# Processed by: cddbd v1.5.2PL0 Copyright (c) Steve Scherf et al.
# Submitted via: FreeRIP 2.945 
#
DISCID=5c11dc18
DTITLE=Cooper-JF1826 - Last-Mohicans05
DYEAR=1826
DGENRE=Native American
TTITLE0=LM 0501
TTITLE1=LM 0502
TTITLE2=LM 0503
TTITLE3=LM 0504
TTITLE4=LM 0505
TTITLE5=LM 0506
TTITLE6=LM 0507
TTITLE7=LM 0508
TTITLE8=LM 0509
TTITLE9=LM 0510
TTITLE10=LM 0511
TTITLE11=LM 0512
TTITLE12=LM 0513
TTITLE13=LM 0514
TTITLE14=LM 0515
TTITLE15=LM 0516
TTITLE16=LM 0517
TTITLE17=LM 0518
TTITLE18=LM 0519
TTITLE19=LM 0520
TTITLE20=LM 0521
TTITLE21=LM 0522
TTITLE22=LM 0523
TTITLE23=LM 0524
EXTD=The Last of the Mohicans Tantor Media\nby James Finimore Cooper 12 CDs\nread by William Costello native country
EXTT0=
EXTT1=
EXTT2=
EXTT3=
EXTT4=
EXTT5=
EXTT6=
EXTT7=
EXTT8=
EXTT9=
EXTT10=
EXTT11=
EXTT12=
EXTT13=
EXTT14=
EXTT15=
EXTT16=
EXTT17=
EXTT18=
EXTT19=
EXTT20=
EXTT21=
EXTT22=
EXTT23=
PLAYORDER=
